<svg width="23" height="17" viewBox="0 0 23 17" fill="none" xmlns="http://www.w3.org/2000/svg">
<g clip-path="url(#clip0_7915_33927)">
<path d="M11.3485 11.6201L10.8917 10.5041L19.1105 7.55127L19.3058 8.02896L11.3485 11.6201Z" fill="black"/>
<path d="M11.152 12.3951C11.8459 12.3951 12.4084 11.8327 12.4084 11.1388C12.4084 10.4449 11.8459 9.88245 11.152 9.88245C10.4582 9.88245 9.89569 10.4449 9.89569 11.1388C9.89569 11.8327 10.4582 12.3951 11.152 12.3951Z" fill="black"/>
<path d="M1.36936 15.84C0.573631 14.1874 0.210279 12.3599 0.313325 10.5287C0.416371 8.69738 0.982443 6.92221 1.95854 5.36934C2.93464 3.81647 4.28884 2.5367 5.89435 1.64984C7.49986 0.762989 9.30416 0.298059 11.1383 0.298584V1.64092C9.14222 1.64118 7.19689 2.27009 5.5784 3.4384C3.95991 4.60671 2.75048 6.25508 2.12174 8.14959C1.34913 10.4881 1.51264 13.0349 2.57794 15.2554C2.63951 15.3814 2.66035 15.5234 2.63756 15.6617C2.61477 15.8001 2.54948 15.9279 2.45075 16.0275C2.38897 16.0899 2.31539 16.1394 2.23431 16.1731C2.15322 16.2068 2.06625 16.2241 1.97843 16.2239C1.85103 16.2239 1.72623 16.1878 1.61846 16.1199C1.51069 16.0519 1.42433 15.9549 1.36936 15.84ZM19.8247 16.0269C19.7262 15.9276 19.661 15.8 19.6383 15.662C19.6156 15.5239 19.6365 15.3822 19.6981 15.2566C20.7634 13.0361 20.9272 10.4893 20.1549 8.15078C19.5262 6.25628 18.3168 4.60791 16.6983 3.43959C15.0798 2.27128 13.1344 1.64237 11.1383 1.64212V0.298584C13.4921 0.298694 15.7819 1.06462 17.6621 2.4807C19.5422 3.89679 20.9106 5.88615 21.5606 8.1484C22.2907 10.7068 22.057 13.4442 20.9037 15.8418C20.8489 15.9564 20.7627 16.0531 20.6551 16.1206C20.5475 16.1882 20.4229 16.2238 20.2958 16.2233C20.2083 16.2234 20.1216 16.2061 20.0407 16.1725C19.9598 16.1389 19.8864 16.0896 19.8247 16.0275V16.0269Z" fill="black"/>
</g>
<defs>
<clipPath id="clip0_7915_33927">
<rect width="22.2991" height="16.5225" fill="white"/>
</clipPath>
</defs>
</svg>
