<svg width="22" height="21" viewBox="0 0 22 21" fill="none" xmlns="http://www.w3.org/2000/svg">
<path d="M17 0C14.24 0 12 2.24 12 5C12 7.76 14.24 10 17 10C19.76 10 22 7.76 22 5C22 2.24 19.76 0 17 0ZM19.71 4.71L17.21 7.21C16.82 7.6 16.19 7.6 15.8 7.21L14.3 5.71C13.91 5.32 13.91 4.69 14.3 4.3C14.69 3.91 15.32 3.91 15.71 4.3L16.5 5.09L18.29 3.3C18.68 2.91 19.31 2.91 19.7 3.3C20.09 3.69 20.09 4.32 19.7 4.71H19.71Z" fill="black"/>
<path d="M10 7H4C3.46 7 3 7.45 3 8C3 8.13 3.02 8.26 3.07 8.38C3.12 8.5 3.19 8.61 3.29 8.7C3.39 8.79 3.49 8.87 3.61 8.92C3.73 8.97 3.86 9 3.99 9H10C10.54 9 11 8.55 11 8C11 7.45 10.55 7 10 7Z" fill="black"/>
<path d="M17 11C16.66 11 16.33 10.96 16 10.91V18C16 18.55 15.55 19 15 19H2C2 19.53 2.21 20.04 2.58 20.42C2.95 20.8 3.46 21 3.99 21H16C16.53 21 17.04 20.79 17.41 20.42C17.78 20.05 17.99 19.54 17.99 19.01V10.91C17.66 10.96 17.33 11 16.99 11H17Z" fill="black"/>
<path d="M11.99 17C12.25 17 12.51 16.95 12.76 16.85C13 16.75 13.22 16.6 13.41 16.42C13.6 16.23 13.74 16.01 13.84 15.77C13.94 15.53 13.99 15.27 13.99 15V10.2C13.19 9.74 12.5 9.09 11.99 8.32V15.01H2V5H11C11 4.3 11.13 3.63 11.35 3H2.01C0.9 3 0 3.9 0 5.01V14.99C0 15.25 0.05 15.51 0.15 15.76C0.25 16 0.4 16.22 0.58 16.41C0.77 16.6 0.99 16.74 1.23 16.84C1.47 16.94 1.73 16.99 2 16.99H11.99V17Z" fill="black"/>
<path d="M4 10C3.46 10 3 10.45 3 11C3 11.13 3.02 11.26 3.07 11.38C3.12 11.5 3.19 11.61 3.29 11.7C3.39 11.79 3.49 11.87 3.61 11.92C3.73 11.97 3.86 12 3.99 12H10C10.54 12 11 11.55 11 11C11 10.45 10.55 10 10 10H4Z" fill="black"/>
</svg>
