<svg width="8" height="12" viewBox="0 0 8 12" fill="none" xmlns="http://www.w3.org/2000/svg">
<path fill-rule="evenodd" clip-rule="evenodd" d="M0.737123 5.55706L5.33012 0.964063C5.42171 0.870609 5.53091 0.796237 5.65142 0.745248C5.77193 0.694259 5.90135 0.667666 6.03219 0.667005C6.16304 0.666344 6.29272 0.691629 6.41374 0.741398C6.53476 0.791166 6.64471 0.864432 6.73723 0.956957C6.82976 1.04948 6.90302 1.15943 6.95279 1.28045C7.00256 1.40146 7.02784 1.53114 7.02718 1.66199C7.02652 1.79284 6.99993 1.92226 6.94894 2.04277C6.89795 2.16327 6.82358 2.27248 6.73012 2.36406L2.83012 6.26406L6.73012 10.1641C6.91269 10.3504 7.01436 10.6012 7.01304 10.862C7.01172 11.1228 6.90752 11.3726 6.72309 11.557C6.53865 11.7415 6.28888 11.8457 6.02805 11.847C5.76722 11.8483 5.51641 11.7466 5.33012 11.5641L0.737123 6.97206C0.549651 6.78454 0.444336 6.53023 0.444336 6.26506C0.444336 5.9999 0.549651 5.74559 0.737123 5.55806V5.55706Z" fill="black"/>
</svg>
