<svg width="18" height="21" viewBox="0 0 18 21" fill="none" xmlns="http://www.w3.org/2000/svg">
<path d="M6 8C8.21 8 10 6.21 10 4C10 1.79 8.21 0 6 0C3.79 0 2 1.79 2 4C2 6.21 3.79 8 6 8Z" fill="black"/>
<path d="M12.5 10.92C9.97004 10.92 7.92004 12.97 7.92004 15.5C7.92004 18.03 9.97004 20.08 12.5 20.08C15.03 20.08 17.08 18.03 17.08 15.5C17.08 12.97 15.03 10.92 12.5 10.92ZM14.33 16.5H13.5V17.33C13.5 17.88 13.05 18.33 12.5 18.33C11.95 18.33 11.5 17.88 11.5 17.33V16.5H10.67C10.12 16.5 9.67004 16.05 9.67004 15.5C9.67004 14.95 10.12 14.5 10.67 14.5H11.5V13.67C11.5 13.12 11.95 12.67 12.5 12.67C13.05 12.67 13.5 13.12 13.5 13.67V14.5H14.33C14.88 14.5 15.33 14.95 15.33 15.5C15.33 16.05 14.88 16.5 14.33 16.5Z" fill="black"/>
<path fill-rule="evenodd" clip-rule="evenodd" d="M7 15.5C7 12.72 9.07 10.42 11.75 10.06C11.41 9.43 10.75 9 9.99 9H2.01C0.9 9 0 9.9 0 11V15.45C0 17.45 4.15 18.28 7.57 17.92C7.21 17.19 7 16.37 7 15.5Z" fill="black"/>
</svg>
