<svg width="24" height="24" viewBox="0 0 24 24" fill="none" xmlns="http://www.w3.org/2000/svg">
<rect width="24" height="24" fill="white" fill-opacity="0.01"/>
<path fill-rule="evenodd" clip-rule="evenodd" d="M11.6995 16.698C11.0368 16.7074 10.3787 16.585 9.76372 16.3378C9.1487 16.0907 8.58893 15.7238 8.11694 15.2584C7.64495 14.793 7.27016 14.2385 7.01434 13.627C6.75853 13.0156 6.62679 12.3594 6.62679 11.6965C6.62679 11.0337 6.75853 10.3775 7.01434 9.76603C7.27016 9.15456 7.64495 8.60004 8.11694 8.13467C8.58893 7.66931 9.1487 7.3024 9.76372 7.05525C10.3787 6.80811 11.0368 6.68567 11.6995 6.69504C13.0261 6.69504 14.2984 7.22203 15.2365 8.16009C16.1745 9.09815 16.7015 10.3704 16.7015 11.697C16.7015 13.0237 16.1745 14.2959 15.2365 15.234C14.2984 16.172 13.0261 16.699 11.6995 16.699V16.698ZM20.0675 13.582C19.6749 13.447 19.3342 13.1928 19.0929 12.8549C18.8517 12.517 18.7218 12.1122 18.7215 11.697C18.7215 10.821 19.2845 10.084 20.0665 9.81204C20.1819 9.774 20.2786 9.69361 20.3371 9.58708C20.3955 9.48056 20.4114 9.35582 20.3815 9.23804C20.1844 8.54236 19.9037 7.87315 19.5455 7.24504C19.4865 7.14553 19.3932 7.07088 19.2832 7.03501C19.1732 6.99913 19.0539 7.00448 18.9475 7.05004C18.5376 7.21582 18.0848 7.24389 17.6575 7.13004C17.322 7.04039 17.0159 6.86443 16.7696 6.61968C16.5232 6.37493 16.3453 6.06993 16.2535 5.73504C16.1368 5.30598 16.1635 4.85054 16.3295 4.43804C16.3745 4.33164 16.3794 4.21256 16.3434 4.10281C16.3074 3.99306 16.2328 3.90007 16.1335 3.84104C15.5105 3.48794 14.8474 3.21064 14.1585 3.01504C14.0409 2.98484 13.9161 3.00047 13.8096 3.05877C13.703 3.11707 13.6225 3.21367 13.5845 3.32904C13.4494 3.72165 13.1952 4.06234 12.8574 4.30361C12.5195 4.54489 12.1147 4.67473 11.6995 4.67504C11.2846 4.67474 10.8801 4.54501 10.5424 4.30391C10.2047 4.06282 9.95057 3.72238 9.81552 3.33004C9.77707 3.21469 9.69645 3.11813 9.58982 3.05972C9.48319 3.0013 9.35842 2.98534 9.24051 3.01504C8.53251 3.21504 7.86151 3.50004 7.23651 3.85704C7.13912 3.9141 7.06552 4.00431 7.02917 4.11118C6.99281 4.21804 6.99613 4.33442 7.03851 4.43904C7.18778 4.80285 7.2266 5.20257 7.15012 5.5883C7.07364 5.97404 6.88525 6.32871 6.60847 6.60805C6.33169 6.88739 5.97877 7.07903 5.59376 7.15906C5.20874 7.23908 4.80869 7.20395 4.44351 7.05804C4.33736 7.01361 4.21873 7.00898 4.10943 7.04498C4.00013 7.08099 3.90749 7.15522 3.84851 7.25404C3.49129 7.8826 3.21159 8.55215 3.01551 9.24804C2.98582 9.36463 3.001 9.48813 3.05804 9.59406C3.11508 9.7 3.20983 9.78065 3.32351 9.82004C3.71054 9.9585 4.04535 10.2131 4.28216 10.5491C4.51897 10.8851 4.64622 11.286 4.64651 11.697C4.64651 12.564 4.09451 13.296 3.32251 13.574C3.20912 13.6132 3.11456 13.6935 3.05753 13.7991C3.00049 13.9046 2.98515 14.0277 3.01451 14.144C3.19057 14.7649 3.43296 15.3651 3.73751 15.934C3.7973 16.0397 3.89513 16.1186 4.01108 16.1547C4.12702 16.1907 4.25235 16.1812 4.36151 16.128C4.95651 15.855 5.70451 15.864 6.46551 16.366C6.58251 16.443 6.69051 16.551 6.76751 16.666C7.29451 17.466 7.27951 18.246 6.96551 18.854C6.90795 18.9604 6.89329 19.0847 6.92453 19.2015C6.95578 19.3183 7.03056 19.4187 7.13351 19.482C7.79546 19.8703 8.50462 20.1718 9.24351 20.379C9.36052 20.4094 9.4847 20.3939 9.59065 20.3357C9.69661 20.2775 9.77633 20.1811 9.81351 20.066C9.94746 19.672 10.2013 19.3296 10.5395 19.087C10.8777 18.8444 11.2833 18.7136 11.6995 18.713C12.5775 18.713 13.3175 19.28 13.5865 20.066C13.6239 20.1809 13.7037 20.2772 13.8096 20.3354C13.9154 20.3935 14.0395 20.4091 14.1565 20.379C14.8857 20.1739 15.5859 19.8772 16.2405 19.496C16.3441 19.4325 16.4192 19.3314 16.4503 19.214C16.4814 19.0965 16.4661 18.9715 16.4075 18.865C16.0895 18.257 16.0705 17.472 16.5985 16.67C16.6755 16.554 16.7835 16.445 16.9005 16.368C17.6725 15.857 18.4275 15.855 19.0255 16.138C19.1346 16.1927 19.2605 16.2035 19.3774 16.1682C19.4942 16.1328 19.593 16.054 19.6535 15.948C19.9605 15.3785 20.2046 14.7773 20.3815 14.155C20.4117 14.0375 20.396 13.9129 20.3377 13.8065C20.2794 13.7001 20.1828 13.6199 20.0675 13.582" fill="black"/>
<rect width="9" height="9" transform="translate(7 7)" fill="white" fill-opacity="0.01"/>
<path fill-rule="evenodd" clip-rule="evenodd" d="M9.25 12.25C9.25 11.8356 9.58825 11.5 10.0034 11.5H12.9966C13.4129 11.5 13.75 11.8352 13.75 12.2522V13.9172C13.75 15.1941 9.25 15.1941 9.25 13.9172V12.25Z" fill="black"/>
<path d="M11.5 11.125C12.3284 11.125 13 10.4534 13 9.625C13 8.79657 12.3284 8.125 11.5 8.125C10.6716 8.125 10 8.79657 10 9.625C10 10.4534 10.6716 11.125 11.5 11.125Z" fill="black"/>
</svg>
